<svg xmlns="http://www.w3.org/2000/svg" viewBox="0 0 74.5 73.03"><defs><style>.cls-1{fill:#fff;}.cls-2{fill:#481a10;}</style></defs><title>Recurso 358</title><g id="Capa_2" data-name="Capa 2"><g id="Capa_1-2" data-name="Capa 1"><rect class="cls-1" width="20" height="20" rx="16.46"/><path class="cls-2" d="M53.78,15.26H20.71A4.73,4.73,0,0,0,16,20V53.05a4.73,4.73,0,0,0,4.72,4.73H53.78a4.73,4.73,0,0,0,4.73-4.73V20A4.73,4.73,0,0,0,53.78,15.26Zm0,37.79H20.71V20H53.78Z"/><polygon class="cls-2" points="34.89 32.77 34.89 48.33 39.61 48.33 39.61 32.77 45.03 38.19 48.37 34.85 37.25 23.73 26.13 34.85 29.47 38.19 34.89 32.77"/></g></g></svg>